<svg width="35" height="35" viewBox="0 0 35 35" fill="none" xmlns="http://www.w3.org/2000/svg">
<path d="M30.0488 6.12593C28.1202 6.80106 4.32544 15.5022 3.97377 15.6642C2.81097 16.1881 2.67484 16.8794 3.64478 17.3493C3.74121 17.3979 5.34643 17.884 7.22393 18.4404L10.6329 19.4504L18.3698 14.8378C22.6296 12.3047 26.1974 10.1983 26.2995 10.1659C26.5661 10.0795 26.7929 10.0849 26.895 10.1875C26.9688 10.2577 26.9745 10.2901 26.9121 10.3928C26.878 10.463 24.0476 12.9097 20.633 15.8262C17.2183 18.7482 14.4106 21.1571 14.3992 21.1841C14.3879 21.2111 14.2744 22.6694 14.144 24.4247L13.9058 27.6114L14.1667 27.579C14.3085 27.5628 14.5297 27.4925 14.6602 27.4223C14.7963 27.3575 15.6811 26.5906 16.6397 25.721C17.5927 24.8514 18.4095 24.1223 18.4492 24.1115C18.4889 24.0953 20.009 25.1215 21.8298 26.3907C23.6449 27.66 25.2728 28.7564 25.4486 28.832C25.9081 29.0372 26.4186 29.0534 26.7532 28.886C27.0539 28.7348 27.3431 28.3567 27.4679 27.9624C27.5133 27.8112 28.557 23.2365 29.7765 17.7976C31.8128 8.74544 32 7.87047 32 7.40058C32 6.95769 31.983 6.84967 31.8582 6.61743C31.7731 6.44999 31.62 6.28256 31.4725 6.18534C31.1378 5.9639 30.582 5.93689 30.0488 6.12593Z" fill="#E0E0E0"/>
</svg>
