<svg width="35" height="35" viewBox="0 0 35 35" fill="none" xmlns="http://www.w3.org/2000/svg">
<path opacity="0.995" fill-rule="evenodd" clipRule="evenodd" d="M7.05859 4C14.0195 4 20.9805 4 27.9414 4C29.6113 4.36914 30.6309 5.38867 31 7.05859C31 14.0195 31 20.9805 31 27.9414C30.6309 29.6113 29.6113 30.6309 27.9414 31C20.9805 31 14.0195 31 7.05859 31C5.38867 30.6309 4.36914 29.6113 4 27.9414C4 20.9805 4 14.0195 4 7.05859C4.36914 5.38867 5.38867 4.36914 7.05859 4ZM15.3906 12.7012C16.2873 12.6924 17.1838 12.7012 18.0801 12.7275C18.4621 12.7241 18.7346 12.8911 18.8975 13.2285C18.9483 13.5073 18.9747 13.7886 18.9766 14.0723C18.9238 14.9508 18.915 15.8297 18.9502 16.709C19.035 17.3498 19.3163 17.4553 19.7939 17.0254C20.7296 15.9285 21.4503 14.698 21.9561 13.334C22.0176 13.2724 22.0791 13.211 22.1406 13.1494C22.7178 13.0904 23.2979 13.064 23.8809 13.0703C24.3906 13.0791 24.9004 13.0879 25.4102 13.0967C25.7862 13.138 25.9357 13.3402 25.8584 13.7031C25.784 13.9788 25.6786 14.2425 25.542 14.4941C24.8242 15.5459 24.0859 16.583 23.3271 17.6055C23.1341 17.8817 23.1165 18.163 23.2744 18.4492C24.2357 19.3044 25.0794 20.2536 25.8057 21.2969C26.0315 21.7884 25.8821 22.1136 25.3574 22.2725C24.4258 22.3076 23.4942 22.3076 22.5625 22.2725C22.1748 22.2093 21.8408 22.0423 21.5605 21.7715C21.0938 21.296 20.6369 20.8127 20.1895 20.3213C20.0315 20.1764 19.8469 20.0797 19.6357 20.0312C19.4835 20.0525 19.3604 20.1228 19.2666 20.2422C19.0873 20.7556 18.9642 21.283 18.8975 21.8242C18.8305 22.0494 18.681 22.1812 18.4492 22.2197C16.5054 22.4448 14.8179 21.8998 13.3867 20.585C12.4166 19.5496 11.5816 18.4158 10.8818 17.1836C10.2637 16.088 9.70122 14.963 9.19434 13.8086C9.06345 13.5466 9.08982 13.3093 9.27344 13.0967C10.2051 13.0615 11.1367 13.0615 12.0684 13.0967C12.2886 13.1498 12.4732 13.2641 12.6221 13.4395C13.1574 14.8012 13.8869 16.0405 14.8105 17.1572C14.9256 17.2543 15.0574 17.3158 15.2061 17.3418C15.3195 17.3343 15.4074 17.2815 15.4697 17.1836C15.5474 16.9609 15.6001 16.7323 15.6279 16.498C15.6631 15.7773 15.6631 15.0567 15.6279 14.3359C15.5933 13.7563 15.2857 13.4311 14.7051 13.3604C14.6776 13.3308 14.66 13.2956 14.6523 13.2549C14.817 12.9579 15.0631 12.7734 15.3906 12.7012Z" fill="#E0E0E0"/>
</svg>
