<svg width="35" height="35" viewBox="0 0 35 35" fill="none" xmlns="http://www.w3.org/2000/svg">
<path d="M16.5968 5.00733C14.7073 5.1882 13.2827 5.59883 11.7359 6.39564C9.37635 7.61774 7.4721 9.55844 6.29234 11.944C5.83709 12.8581 5.62659 13.4203 5.38672 14.3198C5.09301 15.4539 5.0049 16.1431 5 17.3946C5 18.0203 5.02448 18.6949 5.05874 18.9589C5.32798 20.9631 5.95457 22.6887 7.00705 24.3019L7.35951 24.8445L6.58116 27.1372C6.15038 28.4033 5.80771 29.4396 5.81751 29.4494C5.8273 29.4592 6.89446 29.1267 8.19659 28.7112C9.49873 28.2957 10.5806 27.9535 10.6051 27.9535C10.6246 27.9535 10.8253 28.066 11.0505 28.2077C11.2757 28.3446 11.7456 28.5988 12.0932 28.765C15.2604 30.2755 18.878 30.4075 22.1187 29.1219C25.7901 27.67 28.6098 24.4876 29.6182 20.6649C29.9266 19.4917 30 18.8513 30 17.4923C30 16.1334 29.9266 15.493 29.6182 14.3198C28.4335 9.83708 24.8355 6.35164 20.2927 5.29086C19.5291 5.11488 18.736 5.022 17.7717 5.00733C17.2332 4.99756 16.7045 4.99756 16.5968 5.00733ZM13.6107 10.805C13.6939 10.849 13.8065 10.9663 13.8653 11.0738C14.0072 11.3329 15.2017 14.1927 15.236 14.3686C15.28 14.5886 15.0597 14.965 14.5751 15.5125C14.066 16.0845 13.9583 16.2653 14.0023 16.4707C14.0856 16.8422 15.2164 18.3429 15.9164 19.0028C16.9982 20.0245 18.6332 20.9973 19.3626 21.0511C19.7396 21.0755 19.8717 20.9729 20.4494 20.2103C20.7088 19.8632 20.983 19.5161 21.0662 19.4379C21.2522 19.2473 21.5312 19.2082 21.8494 19.3255C22.2508 19.477 24.7131 20.6747 24.8894 20.8067L25.0558 20.9289L25.0264 21.4471C24.9579 22.7767 24.488 23.466 23.2544 24.0672C22.0795 24.6392 21.1592 24.6245 19.3626 24.0037C16.9444 23.1678 15.6667 22.371 13.9289 20.6258C13.0576 19.7557 12.4408 19.0175 11.7359 18.0056C10.5708 16.3436 10.1253 15.0579 10.2575 13.7527C10.3652 12.7066 10.7323 11.9342 11.4715 11.1961C11.8289 10.8392 12.2939 10.6926 12.9988 10.717C13.2974 10.7268 13.5177 10.7561 13.6107 10.805Z" fill="#E0E0E0"/>
</svg>
